<svg width="1218" height="386" viewBox="0 0 1218 386" fill="none" xmlns="http://www.w3.org/2000/svg">
<path opacity="0.99" fill-rule="evenodd" clip-rule="evenodd" d="M270.471 0.0218473C270.671 0.221847 270.871 7.62185 270.971 16.5218C271.171 29.1218 271.571 33.0218 272.771 34.4218C273.571 35.3218 275.671 36.9218 277.271 37.8218C279.771 39.1218 283.771 39.4218 301.071 39.4218C312.471 39.4218 321.771 39.7218 321.771 40.2218C321.771 40.6218 320.071 41.2218 318.071 41.5218C315.971 41.8218 308.171 43.3218 300.771 44.9218C293.371 46.5218 285.071 48.5218 282.271 49.4218C279.571 50.4218 275.671 51.9218 273.771 52.9218C271.871 53.9218 269.171 55.8218 267.871 57.1218C266.471 58.3218 263.971 61.7218 262.271 64.4218C260.471 67.2218 256.771 74.6218 253.871 80.9218C250.971 87.2218 248.171 92.9218 247.671 93.4218C247.071 94.0218 246.771 93.8218 246.771 92.7218C246.771 91.7218 247.471 87.6218 248.371 83.7218C249.271 79.7218 249.971 72.9218 250.071 68.7218C250.271 62.3218 249.871 60.6218 248.171 58.2218C247.071 56.7218 244.771 54.7218 243.171 53.9218C240.971 52.7218 236.471 52.4218 223.471 52.4218C214.271 52.4218 206.771 52.1218 206.771 51.7218C206.771 51.2218 207.771 50.7218 209.071 50.5218C210.271 50.3218 216.871 49.0219 223.771 47.6218C230.671 46.2218 238.971 44.0219 242.271 42.8218C245.571 41.5219 250.071 39.1218 252.171 37.4218C254.371 35.8218 257.671 31.9218 259.471 28.9218C261.271 25.9218 264.071 19.4218 265.671 14.4218C267.271 9.42185 268.971 4.12185 269.371 2.52185C269.871 1.02185 270.371 -0.178153 270.471 0.0218473Z" fill="white"/>
<path opacity="0.99" fill-rule="evenodd" clip-rule="evenodd" d="M189.671 62.5218C190.071 62.7218 190.171 64.8218 189.971 67.1218C189.771 69.5218 190.071 73.3218 190.671 75.7218C191.471 78.9218 192.571 80.3218 195.071 81.6218C196.771 82.5218 201.571 83.5218 205.571 83.8218C209.471 84.1218 212.771 84.7218 212.771 85.2218C212.771 85.6218 211.271 86.2218 209.571 86.5218C207.771 86.8218 203.371 88.0218 199.771 89.2218C196.171 90.4218 192.171 92.3218 190.771 93.5218C189.371 94.7218 187.071 98.3218 185.571 101.522C184.171 104.822 182.571 108.322 182.171 109.422C181.671 110.822 181.171 109.322 180.571 104.422C180.071 100.422 178.971 96.3218 177.871 94.9218C176.871 93.4218 174.271 91.9218 171.671 91.2218C169.271 90.6218 165.171 90.0218 162.571 90.0218C159.871 89.9218 157.571 89.5218 157.271 88.9218C156.971 88.4218 158.471 87.6218 160.571 87.3218C162.571 87.0218 166.571 86.1218 169.271 85.3218C172.071 84.5218 175.771 82.9218 177.571 81.7218C179.871 80.1218 182.171 76.8218 184.971 70.8218C187.271 66.0218 189.371 62.3218 189.671 62.5218Z" fill="white"/>
<path fill-rule="evenodd" clip-rule="evenodd" d="M336.571 33.9218C337.071 33.9218 337.371 34.7218 337.171 35.7218C337.071 36.6218 336.671 39.0218 336.371 40.9218C336.071 42.8218 335.071 49.8218 334.271 56.4218C333.371 63.1218 332.971 70.4218 333.271 72.9218C333.671 75.4218 334.571 78.7218 335.171 80.4218C335.871 82.1218 337.971 84.9218 339.871 86.7218C341.771 88.5218 345.571 90.8218 348.271 91.9218C351.071 92.9218 357.371 94.0218 362.271 94.4218C368.771 94.9218 385.571 93.9218 423.271 91.0218C451.871 88.8218 494.171 85.8218 517.271 84.5218C540.371 83.1218 569.171 81.5218 581.271 80.9218C593.371 80.4218 607.571 79.7218 612.771 79.4218C617.971 79.1218 640.471 78.2218 662.771 77.3218C687.071 76.4218 736.771 75.6218 786.771 75.4218C832.671 75.2218 882.371 75.5218 897.271 75.9218C912.171 76.4218 934.671 77.3218 947.271 77.9218C959.871 78.5218 980.371 79.6218 992.771 80.5218C1005.17 81.3218 1022.67 82.6218 1031.77 83.4218C1040.87 84.2218 1052.77 85.4218 1058.27 86.0218C1063.77 86.6218 1077.77 88.4218 1089.27 90.0218C1100.77 91.6218 1117.07 94.3218 1125.27 95.8218C1133.57 97.4218 1145.27 99.9218 1151.27 101.422C1157.27 102.922 1167.47 105.822 1173.77 107.922C1180.07 109.922 1189.47 113.722 1194.57 116.322C1199.67 118.822 1206.07 123.022 1208.87 125.722C1211.67 128.322 1214.87 132.122 1215.87 134.222C1216.97 136.222 1217.77 139.922 1217.77 142.422C1217.77 144.922 1217.07 148.422 1216.17 150.222C1215.27 151.922 1212.87 155.422 1210.87 157.822C1208.87 160.222 1203.47 164.722 1198.77 167.722C1194.07 170.822 1185.67 175.422 1180.07 178.122C1174.37 180.722 1169.27 182.822 1168.67 182.722C1167.97 182.522 1169.37 181.222 1171.67 179.722C1173.87 178.122 1178.47 174.122 1181.87 170.722C1186.37 166.022 1188.27 163.122 1189.37 159.422C1190.57 155.322 1190.67 153.622 1189.67 149.922C1188.87 146.722 1186.97 143.922 1183.37 140.322C1179.67 136.522 1175.37 133.722 1167.77 130.122C1161.97 127.322 1152.57 123.522 1146.77 121.622C1140.97 119.722 1129.27 116.522 1120.77 114.622C1112.27 112.622 1099.17 109.922 1091.77 108.522C1084.37 107.122 1069.47 104.922 1058.77 103.522C1048.07 102.122 1032.77 100.322 1024.77 99.5218C1016.77 98.7218 1007.57 97.7218 1004.27 97.4218C1000.97 97.1218 989.071 96.2218 977.771 95.4218C966.471 94.6218 946.871 93.5218 934.271 92.9218C921.671 92.3218 907.271 91.7218 902.271 91.4218C897.271 91.2218 857.271 90.7218 813.271 90.3218C761.171 89.9218 719.171 90.1218 692.771 90.8218C670.471 91.4218 647.071 92.2218 640.771 92.4218C634.471 92.7218 612.871 93.6218 592.771 94.5218C572.671 95.3218 554.071 96.1218 551.271 96.4218C548.571 96.6218 540.671 97.1218 533.771 97.4218C526.871 97.7218 504.171 99.1218 483.271 100.422C462.371 101.822 430.371 104.022 412.271 105.422C394.171 106.822 374.771 108.422 369.271 109.022C363.771 109.622 354.971 111.222 349.771 112.522C344.571 113.822 337.571 116.222 334.271 117.822C330.971 119.422 326.471 122.722 324.371 125.122C322.171 127.422 318.971 132.622 317.171 136.422C315.471 140.222 312.371 148.322 310.471 154.422C308.571 160.522 306.471 167.322 305.871 169.722C305.271 172.022 304.371 173.922 303.771 173.922C303.271 173.922 302.971 173.122 303.271 172.222C303.571 171.222 304.571 163.022 305.371 153.922C306.271 144.822 306.771 134.922 306.571 131.722C306.371 127.422 305.671 125.522 303.771 123.522C302.371 122.022 299.071 120.122 296.271 119.122C292.471 117.822 287.971 117.422 277.771 117.422C267.771 117.422 254.371 118.722 226.271 122.222C205.371 124.822 179.971 128.122 169.771 129.522C159.571 130.822 140.971 133.622 128.271 135.522C115.671 137.422 99.8714 139.922 93.2714 141.022C86.6714 142.122 78.1714 143.622 74.2714 144.422C70.4714 145.322 67.0714 145.722 66.7714 145.422C66.4714 145.122 66.4714 144.722 66.7714 144.422C67.0714 144.122 73.3714 142.322 80.7714 140.422C88.1714 138.522 104.171 134.722 116.271 132.022C128.371 129.322 147.971 125.222 159.771 123.022C171.571 120.822 192.571 117.122 206.271 114.922C220.071 112.622 238.971 109.722 248.271 108.322C257.671 107.022 270.471 104.522 276.771 102.922C283.071 101.222 291.971 98.1218 296.571 95.9218C301.771 93.4218 307.071 89.8218 310.871 86.2218C314.271 83.0218 318.771 77.5218 320.871 73.9218C322.971 70.3218 326.971 60.4218 329.771 51.9218C332.571 43.4218 335.071 35.8218 335.271 35.1218C335.571 34.5218 336.071 33.9218 336.571 33.9218Z" fill="white"/>
<path fill-rule="evenodd" clip-rule="evenodd" d="M86.0714 256.022C86.4714 255.922 86.7714 256.222 86.7714 256.722C86.7714 257.122 84.6714 258.522 82.0714 259.822C79.3714 261.122 72.3714 265.422 66.2714 269.422C60.2714 273.422 52.5714 279.422 49.2714 282.822C45.9714 286.122 41.7714 291.422 40.0714 294.622C37.5714 299.022 36.7714 301.622 36.7714 305.422C36.7714 308.222 37.5714 312.122 38.6714 314.422C39.7714 316.622 42.9714 320.722 45.9714 323.422C49.1714 326.422 55.1714 330.322 60.7714 333.122C65.9714 335.722 75.2714 339.522 81.2714 341.522C87.3714 343.522 99.6714 346.922 108.771 349.022C117.871 351.022 133.571 354.122 143.771 355.822C153.971 357.522 167.471 359.522 173.771 360.322C180.071 361.122 192.471 362.522 201.271 363.322C210.071 364.222 223.771 365.322 231.771 365.922C239.771 366.422 256.671 367.422 269.271 368.022C281.871 368.622 316.171 369.222 345.271 369.322C374.371 369.322 412.271 369.122 429.271 368.622C446.371 368.222 474.471 367.222 491.771 366.422C509.071 365.522 537.471 364.022 554.771 362.922C572.071 361.822 600.871 359.722 618.771 358.322C636.671 357.022 660.971 355.022 672.771 353.922C684.571 352.822 699.271 351.522 705.271 350.922C711.271 350.322 728.671 348.522 743.771 346.922C758.871 345.222 784.571 342.322 800.771 340.522C816.971 338.622 835.671 336.322 842.271 335.422C848.871 334.622 855.671 333.622 857.271 333.322C859.071 332.922 860.571 333.122 861.071 333.822C861.471 334.422 861.571 334.922 861.271 334.922C860.971 334.922 848.271 337.322 833.071 340.322C817.771 343.322 794.871 347.322 782.271 349.322C769.671 351.222 754.271 353.522 748.271 354.322C742.271 355.222 728.271 357.022 717.271 358.322C706.271 359.722 691.171 361.522 683.771 362.422C676.371 363.222 663.271 364.522 654.771 365.422C646.271 366.222 634.571 367.322 628.771 367.922C622.971 368.422 615.771 369.122 612.771 369.422C609.771 369.722 591.071 371.222 571.271 372.922C551.471 374.522 520.371 376.722 502.271 377.822C484.171 378.922 460.071 380.322 448.771 380.922C437.471 381.422 415.871 382.422 400.771 382.922C385.671 383.522 352.171 384.422 326.271 384.922C295.471 385.522 266.571 385.522 242.271 384.922C221.971 384.322 192.871 383.022 177.771 381.922C162.671 380.822 142.671 379.022 133.271 377.922C123.971 376.822 110.471 374.922 103.271 373.822C96.1714 372.722 84.1714 370.422 76.7714 368.722C69.3714 367.022 58.5714 364.222 52.7714 362.322C46.9714 360.522 38.8714 357.622 34.7714 355.922C30.6714 354.222 24.1714 350.822 20.2714 348.522C16.4714 346.122 11.3714 342.022 9.07143 339.522C6.67143 337.022 3.87143 333.122 2.77143 330.922C1.67143 328.722 0.471429 325.022 0.171429 322.722C-0.228571 320.022 0.0714285 316.322 1.07143 312.922C1.97143 309.822 4.57143 304.822 7.07143 301.422C9.47143 298.122 15.0714 292.722 19.3714 289.322C23.7714 286.022 29.9714 281.622 33.2714 279.722C36.5714 277.722 44.6714 273.422 51.2714 270.322C57.8714 267.122 68.2714 262.622 74.2714 260.322C80.3714 258.022 85.5714 256.022 86.0714 256.022Z" fill="white"/>
<path fill-rule="evenodd" clip-rule="evenodd" d="M1002.87 151.122C1026.67 151.322 1041.27 151.822 1041.77 152.422C1042.27 153.022 1049.67 167.422 1058.27 184.422C1066.87 201.522 1076.67 220.822 1086.17 239.422L1087.87 227.922C1088.77 221.622 1091.87 202.022 1094.67 184.422C1097.47 166.822 1100.07 152.122 1100.27 151.722C1100.57 151.322 1113.57 150.922 1129.27 150.922C1144.97 150.922 1157.97 151.322 1158.17 151.722C1158.47 152.122 1155.47 172.022 1151.67 195.922C1147.87 219.822 1142.97 250.222 1140.77 263.422C1138.67 276.622 1136.27 291.422 1134.27 304.922H1060.77L1051.17 287.222C1045.77 277.422 1036.37 260.222 1030.17 248.922C1023.97 237.622 1017.07 225.022 1010.87 213.422L1010.37 216.922C1010.07 218.822 1007.47 234.822 1004.77 252.422C1001.97 270.022 998.972 289.022 996.272 305.022L967.972 304.922C943.172 304.922 939.772 304.722 939.972 303.422C940.072 302.522 942.372 288.322 944.972 271.622C947.572 255.022 950.872 234.222 952.272 225.422C953.672 216.622 956.772 196.822 959.272 181.422C961.772 166.022 964.072 152.822 964.272 152.122C964.672 151.122 972.472 150.922 1002.87 151.122Z" fill="white"/>
<path fill-rule="evenodd" clip-rule="evenodd" d="M916.271 150.922C933.071 150.922 946.972 151.322 947.172 151.722C947.372 152.122 945.571 163.922 943.271 177.922C940.971 191.922 935.271 226.322 922.271 304.922H860.771V302.722C860.771 301.422 863.671 282.422 867.271 260.422C870.871 238.422 876.371 205.222 879.471 186.522C882.671 167.922 885.371 152.222 885.571 151.822C885.671 151.322 899.571 150.922 916.271 150.922Z" fill="white"/>
<path fill-rule="evenodd" clip-rule="evenodd" d="M783.771 150.922C848.471 150.922 865.872 151.222 866.172 152.222C866.472 152.922 865.271 162.022 860.271 191.422L757.271 191.922L756.471 196.222C756.071 198.522 755.471 201.922 754.771 206.922H803.471C830.371 206.922 852.371 207.022 852.371 207.222C852.471 207.322 851.771 212.422 850.771 218.422C849.771 224.522 848.471 232.722 846.771 243.922H748.771L747.771 248.922C747.171 251.722 746.771 255.022 746.771 258.922H799.271C848.571 258.922 851.771 259.022 851.771 260.722C851.771 261.622 850.171 271.622 848.271 282.922C846.371 294.222 844.771 303.822 844.771 304.222C844.771 304.622 806.971 304.922 760.771 304.922C694.271 304.922 676.771 304.722 676.771 303.722C676.771 303.022 678.371 292.722 680.271 280.922C682.171 269.122 687.371 236.922 691.771 209.422C696.171 181.922 700.071 157.822 700.371 155.922C700.671 154.022 701.171 152.122 701.371 151.722C701.671 151.322 738.771 150.922 783.771 150.922Z" fill="white"/>
<path fill-rule="evenodd" clip-rule="evenodd" d="M497.571 151.922C497.874 151.222 521.074 151.022 568.071 151.222C635.171 151.622 638.572 151.722 645.771 153.722C649.871 154.822 655.271 156.722 657.771 158.022C660.172 159.222 664.172 161.722 666.472 163.622C668.872 165.422 671.872 169.122 673.172 171.722C674.472 174.322 676.071 179.422 676.771 183.022C677.471 186.822 677.671 192.223 677.271 196.022C676.871 199.523 675.871 205.623 675.071 209.522C674.271 213.322 672.271 219.223 670.771 222.522C669.171 225.822 665.571 231.122 662.571 234.422C659.671 237.722 654.571 242.122 651.271 244.222C647.971 246.322 642.671 248.922 633.771 252.022L637.071 257.222C638.971 260.122 646.571 271.822 654.071 283.222C661.571 294.622 667.771 304.222 667.771 304.522C667.752 304.722 652.138 305.022 598.771 305.022L570.972 259.522L542.271 258.922L535.271 304.522L503.972 304.722C479.572 304.922 472.771 304.722 472.771 303.722C472.772 303.02 473.672 296.421 474.771 289.022C475.871 281.523 478.371 266.222 480.271 255.022C482.071 243.723 485.271 224.122 487.271 211.522C489.271 198.822 492.271 180.522 494.071 170.722C495.771 160.922 497.371 152.422 497.571 151.922ZM551.371 204.222C550.371 210.421 549.472 216.921 549.172 218.722L548.771 222.022C582.271 222.022 592.872 221.522 595.972 220.822C599.371 220.022 602.471 218.522 604.571 216.522C606.371 214.923 608.271 211.922 608.771 210.022C609.271 208.023 609.771 204.922 609.771 203.022C609.771 201.022 609.071 198.422 608.071 197.222C607.071 195.922 604.471 194.522 602.271 193.922C600.072 193.422 588.072 193.022 575.672 193.022H553.071L551.371 204.222Z" fill="white"/>
<path fill-rule="evenodd" clip-rule="evenodd" d="M362.871 151.022C385.771 151.022 392.871 151.322 393.271 152.222C393.571 152.922 392.071 164.522 389.871 178.022C387.671 191.422 383.971 213.922 381.771 228.022C379.571 242.022 377.471 254.722 376.771 259.022H420.271C448.571 259.022 463.771 259.322 463.771 260.022C463.771 260.522 462.171 270.522 460.271 282.222C458.371 293.922 456.771 303.822 456.771 304.222C456.771 304.622 422.971 305.022 306.771 305.022L307.271 302.722C307.471 301.522 309.071 291.722 310.871 281.022C312.571 270.222 314.271 258.822 314.771 255.522C315.271 252.222 317.871 235.722 320.671 219.022C323.371 202.222 326.871 180.622 328.371 171.022C329.871 161.322 331.471 152.922 331.971 152.222C332.771 151.322 340.071 151.022 362.871 151.022Z" fill="white"/>
<path fill-rule="evenodd" clip-rule="evenodd" d="M261.671 151.422L262.772 158.422C263.372 162.221 264.471 168.321 265.371 171.922C266.171 175.522 270.372 189.922 274.772 203.922C279.072 217.921 285.672 239.121 289.272 250.922C292.972 262.721 297.772 278.521 299.972 285.922C302.272 293.321 304.172 300.621 304.772 304.922H239.272L236.871 296.222C235.571 291.322 233.672 284.622 230.772 274.922H196.572C177.673 274.922 161.373 275.222 160.272 275.522C158.972 275.822 154.971 281.422 140.772 304.922H106.272C87.2717 304.922 71.8715 304.522 72.0715 304.122C72.1742 303.718 78.9732 293.019 87.0715 280.322C95.2715 267.722 109.571 245.522 118.871 230.922C128.171 216.322 143.272 192.622 152.572 178.222C166.271 156.722 169.672 152.022 171.772 151.722C173.173 151.522 193.974 151.322 261.671 151.422ZM206.171 190.522C204.471 192.622 200.271 198.623 196.671 203.722C191.471 211.322 189.471 213.422 185.772 215.122C183.272 216.222 175.872 219.122 169.272 221.422L157.272 225.722C185.171 239.122 185.872 239.622 187.272 243.422C188.072 245.621 189.671 251.022 190.871 255.422C191.971 259.82 193.271 263.72 193.671 264.122C193.971 264.522 196.272 261.922 198.772 258.322C201.272 254.722 205.372 248.922 208.072 245.322C211.371 240.822 214.172 238.222 217.572 236.522C220.172 235.222 227.172 232.322 233.272 229.922L244.272 225.622C227.173 218.422 220.972 215.422 219.472 214.322C217.272 212.822 216.072 210.322 213.772 202.922C212.172 197.722 210.472 191.922 210.072 190.022L209.272 186.522L206.171 190.522Z" fill="white"/>
</svg>
